<?xml version="1.0" encoding="UTF-8" standalone="no"?>
<!-- Created with Inkscape (http://www.inkscape.org/) -->

<svg
   xmlns:dc="http://purl.org/dc/elements/1.1/"
   xmlns:cc="http://creativecommons.org/ns#"
   xmlns:rdf="http://www.w3.org/1999/02/22-rdf-syntax-ns#"
   xmlns:svg="http://www.w3.org/2000/svg"
   xmlns="http://www.w3.org/2000/svg"
   xmlns:sodipodi="http://sodipodi.sourceforge.net/DTD/sodipodi-0.dtd"
   xmlns:inkscape="http://www.inkscape.org/namespaces/inkscape"
   id="svg2"
   version="1.1"
   inkscape:version="0.91 r13725"
   xml:space="preserve"
   width="178.75244"
   height="33.870937"
   viewBox="0 0 178.75244 33.870937"
   sodipodi:docname="node-red-sts.svg"
   inkscape:export-filename="/home/roberto/Dropbox/Sensetecnic/fred/front-node-red/node-red-contrib/editor/images/node-red-sts.png"
   inkscape:export-xdpi="50.830009"
   inkscape:export-ydpi="50.830009"><metadata
     id="metadata8"><rdf:RDF><cc:Work
         rdf:about=""><dc:format>image/svg+xml</dc:format><dc:type
           rdf:resource="http://purl.org/dc/dcmitype/StillImage" /><dc:title></dc:title></cc:Work></rdf:RDF></metadata><defs
     id="defs6"><clipPath
       clipPathUnits="userSpaceOnUse"
       id="clipPath16"><path
         d="M 0,216 288,216 288,0 0,0 0,216 Z"
         id="path18"
         inkscape:connector-curvature="0" /></clipPath></defs><sodipodi:namedview
     pagecolor="#ffffff"
     bordercolor="#666666"
     borderopacity="1"
     objecttolerance="10"
     gridtolerance="10"
     guidetolerance="10"
     inkscape:pageopacity="0"
     inkscape:pageshadow="2"
     inkscape:window-width="1393"
     inkscape:window-height="821"
     id="namedview4"
     showgrid="false"
     fit-margin-top="1"
     fit-margin-left="1"
     fit-margin-right="1"
     fit-margin-bottom="1"
     inkscape:zoom="3.4962963"
     inkscape:cx="84.187537"
     inkscape:cy="3.7427354"
     inkscape:window-x="463"
     inkscape:window-y="36"
     inkscape:window-maximized="0"
     inkscape:current-layer="g14" /><g
     id="g10"
     inkscape:groupmode="layer"
     inkscape:label="sensetecnic_RGB_notag"
     transform="matrix(1.25,0,0,-1.25,-70.896313,184.97559)"><g
       id="g12"><g
         id="g14"
         clip-path="url(#clipPath16)"><g
           id="g20"
           transform="matrix(0.48545857,0,0,0.48545857,76.044721,139.10615)"
           style="fill:#c7c7c7;fill-opacity:1"><path
             d="m 0,0 c 1.911,-1.445 4.195,-2.33 6.291,-2.33 2.051,0 3.403,0.699 3.403,2.33 0,1.679 -1.212,2.284 -3.868,2.983 -4.288,0.978 -6.105,2.702 -6.105,6.292 0,4.193 3.169,6.243 7.363,6.243 2.33,0 4.194,-0.512 5.919,-1.584 l 0,-4.24 c -1.818,1.303 -3.589,2.097 -5.779,2.097 -2.004,0 -3.076,-0.978 -3.076,-2.331 0,-1.352 0.885,-2.05 3.263,-2.703 4.706,-1.024 6.757,-2.796 6.757,-6.523 0,-4.336 -3.309,-6.292 -7.783,-6.292 -2.423,0 -4.847,0.653 -6.385,1.678 L 0,0 Z"
             style="fill:#c7c7c7;fill-opacity:1;fill-rule:nonzero;stroke:none"
             id="path22"
             inkscape:connector-curvature="0" /></g><g
           id="g24"
           transform="matrix(0.48545857,0,0,0.48545857,92.338848,142.44023)"
           style="fill:#c7c7c7;fill-opacity:1"><path
             d="M 0,0 C -0.095,3.27 -1.707,5.07 -4.739,5.07 -7.438,5.07 -9.429,3.175 -10.045,0 L 0,0 Z m -10.187,-3.032 0,-0.095 c 0.285,-3.743 3.507,-5.779 6.776,-5.779 2.889,0 4.974,0.663 7.058,2.036 l 0,-4.122 c -1.895,-1.325 -4.69,-1.942 -7.391,-1.942 -6.537,0 -10.991,4.169 -10.991,10.803 0,6.679 4.359,11.132 10.139,11.132 6.112,0 9.001,-3.931 9.001,-9.664 l 0,-2.369 -14.592,0 z"
             style="fill:#c7c7c7;fill-opacity:1;fill-rule:nonzero;stroke:none"
             id="path26"
             inkscape:connector-curvature="0" /></g><g
           id="g28"
           transform="matrix(0.48545857,0,0,0.48545857,97.174982,145.93621)"
           style="fill:#c7c7c7;fill-opacity:1"><path
             d="m 0,0 c 2.938,1.137 6.538,1.8 9.617,1.8 5.354,0 8.765,-2.036 8.765,-7.96 l 0,-13.501 -4.643,0 0,13.075 c 0,3.032 -1.895,4.123 -4.501,4.123 -1.658,0 -3.316,-0.238 -4.548,-0.617 l 0,-16.581 -4.69,0 L 0,0 Z"
             style="fill:#c7c7c7;fill-opacity:1;fill-rule:nonzero;stroke:none"
             id="path30"
             inkscape:connector-curvature="0" /></g><g
           id="g32"
           transform="matrix(0.48545857,0,0,0.48545857,108.91153,139.15139)"
           style="fill:#c7c7c7;fill-opacity:1"><path
             d="m 0,0 c 1.943,-1.468 4.264,-2.369 6.396,-2.369 2.084,0 3.458,0.71 3.458,2.369 0,1.707 -1.232,2.322 -3.932,3.032 -4.358,0.994 -6.206,2.749 -6.206,6.396 0,4.264 3.221,6.348 7.485,6.348 2.37,0 4.265,-0.52 6.017,-1.609 l 0,-4.313 c -1.847,1.326 -3.647,2.132 -5.875,2.132 -2.037,0 -3.126,-0.995 -3.126,-2.368 0,-1.375 0.9,-2.085 3.316,-2.748 4.785,-1.042 6.87,-2.844 6.87,-6.634 0,-4.405 -3.364,-6.396 -7.912,-6.396 -2.464,0 -4.927,0.663 -6.491,1.707 L 0,0 Z"
             style="fill:#c7c7c7;fill-opacity:1;fill-rule:nonzero;stroke:none"
             id="path34"
             inkscape:connector-curvature="0" /></g><g
           id="g36"
           transform="matrix(0.48545857,0,0,0.48545857,125.08342,142.44023)"
           style="fill:#c7c7c7;fill-opacity:1"><path
             d="m 0,0 c -0.094,3.27 -1.705,5.07 -4.737,5.07 -2.7,0 -4.691,-1.895 -5.306,-5.07 L 0,0 Z m -10.186,-3.032 0,-0.095 c 0.285,-3.743 3.507,-5.779 6.775,-5.779 2.89,0 4.975,0.663 7.059,2.036 l 0,-4.122 c -1.895,-1.325 -4.69,-1.942 -7.391,-1.942 -6.537,0 -10.991,4.169 -10.991,10.803 0,6.679 4.359,11.132 10.139,11.132 6.111,0 9.001,-3.931 9.001,-9.664 l 0,-2.369 -14.592,0 z"
             style="fill:#c7c7c7;fill-opacity:1;fill-rule:nonzero;stroke:none"
             id="path38"
             inkscape:connector-curvature="0" /></g><g
           id="g40"
           transform="matrix(0.48545857,0,0,0.48545857,89.882281,128.47378)"
           style="fill:#c7c7c7;fill-opacity:1"><path
             d="M 0,0 C -0.095,3.27 -1.697,5.07 -4.713,5.07 -7.398,5.07 -9.377,3.175 -9.99,0 L 0,0 Z m -10.131,-3.032 0,-0.095 c 0.283,-3.743 3.487,-5.779 6.738,-5.779 2.874,0 4.947,0.663 7.02,2.036 l 0,-4.122 c -1.884,-1.325 -4.664,-1.942 -7.35,-1.942 -6.502,0 -10.932,4.169 -10.932,10.803 0,6.679 4.335,11.132 10.084,11.132 6.079,0 8.952,-3.931 8.952,-9.664 l 0,-2.369 -14.512,0 z"
             style="fill:#c7c7c7;fill-opacity:1;fill-rule:nonzero;stroke:none"
             id="path42"
             inkscape:connector-curvature="0" /></g><g
           id="g44"
           transform="matrix(0.48545857,0,0,0.48545857,101.66839,129.87641)"
           style="fill:#c7c7c7;fill-opacity:1"><path
             d="m 0,0 c -1.743,1.375 -3.58,1.943 -5.512,1.943 -3.77,0 -6.692,-2.415 -6.692,-6.823 0,-4.169 2.828,-6.822 6.88,-6.822 2.074,0 3.864,0.665 5.56,1.895 l 0,-4.453 c -1.931,-1.089 -3.958,-1.563 -6.173,-1.563 -6.36,0 -10.979,4.216 -10.979,10.943 0,6.777 4.853,10.992 10.979,10.992 2.31,0 4.1,-0.52 5.937,-1.564 L 0,0 Z"
             style="fill:#c7c7c7;fill-opacity:1;fill-rule:nonzero;stroke:none"
             id="path46"
             inkscape:connector-curvature="0" /></g><g
           id="g48"
           transform="matrix(0.48545857,0,0,0.48545857,103.57508,131.96971)"
           style="fill:#c7c7c7;fill-opacity:1"><path
             d="m 0,0 c 2.921,1.137 6.503,1.8 9.565,1.8 5.325,0 8.717,-2.036 8.717,-7.96 l 0,-13.501 -4.617,0 0,13.075 c 0,3.032 -1.885,4.123 -4.477,4.123 -1.649,0 -3.298,-0.238 -4.523,-0.617 l 0,-16.581 -4.665,0 L 0,0 Z"
             style="fill:#c7c7c7;fill-opacity:1;fill-rule:nonzero;stroke:none"
             id="path50"
             inkscape:connector-curvature="0" /></g><path
           d="m 116.8145,122.42501 -2.26466,0 0,10.1893 2.26466,0 0,-10.1893 z"
           style="fill:#c7c7c7;fill-opacity:1;fill-rule:nonzero;stroke:none"
           id="path52"
           inkscape:connector-curvature="0" /><g
           id="g54"
           transform="matrix(0.48545857,0,0,0.48545857,126.74601,129.87641)"
           style="fill:#c7c7c7;fill-opacity:1"><path
             d="m 0,0 c -1.743,1.375 -3.58,1.943 -5.512,1.943 -3.77,0 -6.692,-2.415 -6.692,-6.823 0,-4.169 2.828,-6.822 6.88,-6.822 2.074,0 3.864,0.665 5.56,1.895 l 0,-4.453 c -1.931,-1.089 -3.958,-1.563 -6.173,-1.563 -6.36,0 -10.979,4.216 -10.979,10.943 0,6.777 4.853,10.992 10.979,10.992 2.31,0 4.1,-0.52 5.937,-1.564 L 0,0 Z"
             style="fill:#c7c7c7;fill-opacity:1;fill-rule:nonzero;stroke:none"
             id="path56"
             inkscape:connector-curvature="0" /></g><g
           id="g58"
           transform="matrix(0.48545857,0,0,0.48545857,79.724399,124.21878)"
           style="fill:#c7c7c7;fill-opacity:1"><path
             d="m 0,0 c -1.791,0 -2.875,0.853 -2.875,3.364 l 0,10.721 5.937,0 0,3.933 -5.99,0 0,2.345 -4.612,0 0.047,-18.041 c 0,-4.785 2.875,-6.491 6.267,-6.491 1.98,0 3.675,0.426 5.042,1.137 l 0,4.217 C 2.544,0.427 1.366,0 0,0"
             style="fill:#c7c7c7;fill-opacity:1;fill-rule:nonzero;stroke:none"
             id="path60"
             inkscape:connector-curvature="0" /></g><g
           id="g62"
           transform="matrix(0.33275085,0,0,0.33275085,70.838381,132.00794)"><path
             d="m 0,0 c -1.443,0.314 -2.451,0.113 -2.81,0.107 -1.435,-0.025 -3.035,0.337 -4.352,1.654 -1.225,1.225 -1.613,2.603 -1.604,3.93 0.03,0.727 0.095,1.083 0.089,1.579 -0.007,0.531 -0.079,1.059 -0.19,1.58 -0.209,0.992 -0.586,1.953 -1.171,2.812 -3.266,4.794 -10.201,4.794 -13.468,0 -1.824,-2.678 -1.824,-6.31 0,-8.988 1.272,-1.867 3.104,-2.991 5.054,-3.41 0.968,-0.208 1.966,-0.17 2.551,-0.149 1.472,0.055 3.104,-0.235 4.481,-1.612 1.447,-1.446 1.735,-3.239 1.64,-4.777 -0.047,-0.776 0.032,-1.658 0.176,-2.33 0.211,-0.984 0.585,-1.937 1.166,-2.79 3.266,-4.794 10.201,-4.793 13.467,0 1.825,2.679 1.825,6.31 0.001,8.989 C 3.763,-1.546 1.998,-0.435 0,0"
             style="fill:#971b2f;fill-opacity:1;fill-rule:nonzero;stroke:none"
             id="path64"
             inkscape:connector-curvature="0" /></g><g
           id="g66"
           transform="matrix(0.33275085,0,0,0.33275085,62.621198,145.05074)"><path
             d="m 0,0 c -0.315,-1.443 -0.113,-2.451 -0.107,-2.81 0.025,-1.435 -0.337,-3.035 -1.655,-4.353 -1.225,-1.225 -2.603,-1.614 -3.931,-1.605 -0.727,0.03 -1.083,0.095 -1.579,0.089 -0.532,-0.007 -1.059,-0.08 -1.58,-0.19 -0.993,-0.21 -1.954,-0.587 -2.814,-1.173 -4.795,-3.267 -4.795,-10.202 0,-13.468 2.679,-1.824 6.311,-1.823 8.99,0.002 1.867,1.272 2.992,3.104 3.411,5.055 0.208,0.968 0.17,1.966 0.149,2.551 -0.055,1.472 0.235,3.104 1.613,4.482 1.446,1.447 3.24,1.735 4.778,1.641 0.776,-0.047 1.658,0.032 2.331,0.176 0.984,0.211 1.937,0.586 2.79,1.167 4.795,3.268 4.795,10.203 10e-4,13.469 C 9.718,6.857 6.085,6.856 3.406,5.031 1.547,3.763 0.436,1.999 0,0"
             style="fill:#971b2f;fill-opacity:1;fill-rule:nonzero;stroke:none"
             id="path68"
             inkscape:connector-curvature="0" /></g><g
           id="g70"
           transform="matrix(0.33275085,0,0,0.33275085,63.751586,142.24116)"><path
             d="M 0,0 C 0.121,-0.082 0.247,-0.15 0.372,-0.225 0.241,-0.154 0.116,-0.079 0,0"
             style="fill:#7f1518;fill-opacity:1;fill-rule:nonzero;stroke:none"
             id="path72"
             inkscape:connector-curvature="0" /></g><g
           id="g74"
           transform="matrix(0.33275085,0,0,0.33275085,62.986326,125.87089)"><path
             d="m 0,0 c 3.266,4.794 10.201,4.794 13.467,0 1.825,-2.678 1.825,-6.31 0,-8.988 C 10.201,-13.782 3.266,-13.782 0,-8.988 -1.825,-6.31 -1.825,-2.678 0,0"
             style="fill:#971b2f;fill-opacity:1;fill-rule:nonzero;stroke:none"
             id="path76"
             inkscape:connector-curvature="0" /></g><g
           id="g78"
           transform="matrix(0.33275085,0,0,0.33275085,57.972503,130.88468)"><path
             d="m 0,0 c 3.266,4.794 10.201,4.794 13.467,0 1.825,-2.678 1.825,-6.31 0,-8.988 C 10.201,-13.782 3.266,-13.782 0,-8.988 -1.825,-6.31 -1.825,-2.678 0,0"
             style="fill:#c7c7c7;fill-opacity:1;fill-rule:nonzero;stroke:none"
             id="path80"
             inkscape:connector-curvature="0" /></g><g
           id="g82"
           transform="matrix(0.33275085,0,0,0.33275085,68.040046,140.95222)"><path
             d="m 0,0 c 3.266,4.794 10.201,4.794 13.467,0 1.825,-2.678 1.825,-6.31 0,-8.988 C 10.201,-13.782 3.266,-13.782 0,-8.988 -1.825,-6.31 -1.825,-2.678 0,0"
             style="fill:#c7c7c7;fill-opacity:1;fill-rule:nonzero;stroke:none"
             id="path84"
             inkscape:connector-curvature="0" /></g><g
           id="g4360"
           transform="matrix(1.1891039,0,0,1.1891039,-5.059216,96.265387)"><rect
             ry="2.2341363"
             rx="2.2341363"
             transform="scale(1,-1)"
             y="-34.403713"
             x="123.56791"
             height="5.9396753"
             width="13.531522"
             id="rect4274"
             style="opacity:1;fill:#8e0000;fill-opacity:1;stroke:#c7c7c7;stroke-width:1.59432602;stroke-miterlimit:10.43299961;stroke-dasharray:none;stroke-opacity:1" /><rect
             transform="scale(1,-1)"
             ry="2.2341363"
             rx="2.2341363"
             y="-41.142696"
             x="146.94183"
             height="5.9396753"
             width="13.531522"
             id="rect4274-25"
             style="opacity:1;fill:#8e0000;fill-opacity:1;stroke:#c7c7c7;stroke-width:1.59432602;stroke-miterlimit:10.43299961;stroke-dasharray:none;stroke-opacity:1" /><rect
             transform="scale(1,-1)"
             ry="2.2341363"
             rx="2.2341363"
             y="-28.734413"
             x="157.21075"
             height="5.9396753"
             width="13.531522"
             id="rect4274-25-2"
             style="opacity:1;fill:#8e0000;fill-opacity:1;stroke:#c7c7c7;stroke-width:1.59432602;stroke-miterlimit:10.43299961;stroke-dasharray:none;stroke-opacity:1" /><path
             sodipodi:nodetypes="csc"
             inkscape:connector-curvature="0"
             id="path4356"
             d="m 137.29953,31.510576 c 2.56145,0.05313 3.73395,1.489471 4.95707,3.411384 1.30873,2.056447 2.01074,3.056665 4.21341,3.144502"
             style="fill:none;fill-rule:evenodd;stroke:#c7c7c7;stroke-width:1.27999997;stroke-linecap:butt;stroke-linejoin:miter;stroke-miterlimit:4;stroke-dasharray:none;stroke-opacity:1" /><path
             sodipodi:nodetypes="csc"
             inkscape:connector-curvature="0"
             id="path4358"
             d="m 137.30025,31.460159 c 3.11456,-0.161795 7.55428,0.386341 10.23357,-2.426931 2.42693,-2.548283 5.90554,-3.438157 9.30325,-3.397709"
             style="fill:none;fill-rule:evenodd;stroke:#c7c7c7;stroke-width:1.27999997;stroke-linecap:butt;stroke-linejoin:miter;stroke-miterlimit:4;stroke-dasharray:none;stroke-opacity:1" /></g></g></g></g></svg>